<svg width="142" height="46" viewBox="0 0 142 46" fill="none" xmlns="http://www.w3.org/2000/svg">
<rect width="141.284" height="45.8716" rx="5" fill="#1A1A1A"/>
<g clip-path="url(#clip0_12612_191957)">
<path d="M26 12.936C24.0222 12.936 22.0888 13.5225 20.4443 14.6213C18.7998 15.7202 17.5181 17.2819 16.7612 19.1092C16.0043 20.9365 15.8063 22.9471 16.1922 24.8869C16.578 26.8267 17.5304 28.6086 18.9289 30.0071C20.3275 31.4056 22.1093 32.358 24.0491 32.7439C25.9889 33.1297 27.9996 32.9317 29.8268 32.1748C31.6541 31.418 33.2159 30.1362 34.3147 28.4917C35.4135 26.8472 36 24.9138 36 22.936C35.9971 20.2848 34.9426 17.7429 33.0679 15.8681C31.1932 13.9934 28.6513 12.9389 26 12.936ZM33.2058 18.7694H30.5217C29.9208 17.3769 29.1297 16.0744 28.1708 14.8994C30.2929 15.4768 32.1019 16.8673 33.2058 18.7694ZM29.75 22.936C29.7432 23.7845 29.6095 24.6271 29.3533 25.436H22.6467C22.3905 24.6271 22.2568 23.7845 22.25 22.936C22.2568 22.0876 22.3905 21.2449 22.6467 20.436H29.3533C29.6095 21.2449 29.7432 22.0876 29.75 22.936ZM23.315 27.1027H28.685C27.9777 28.4991 27.0735 29.7867 26 30.926C24.9261 29.7871 24.0219 28.4994 23.315 27.1027ZM23.315 18.7694C24.0223 17.3729 24.9265 16.0853 26 14.946C27.0739 16.085 27.9781 17.3727 28.685 18.7694H23.315ZM23.8333 14.8994C22.8731 16.0742 22.0805 17.3766 21.4783 18.7694H18.7942C19.8991 16.8664 21.7097 15.4758 23.8333 14.8994ZM18.0508 20.436H20.9167C20.7006 21.252 20.5886 22.092 20.5833 22.936C20.5886 23.7801 20.7006 24.6201 20.9167 25.436H18.0508C17.5386 23.8087 17.5386 22.0633 18.0508 20.436ZM18.7942 27.1027H21.4783C22.0805 28.4955 22.8731 29.7979 23.8333 30.9727C21.7097 30.3962 19.8991 29.0057 18.7942 27.1027ZM28.1708 30.9727C29.1297 29.7976 29.9208 28.4952 30.5217 27.1027H33.2058C32.1019 29.0048 30.2929 30.3953 28.1708 30.9727ZM33.9492 25.436H31.0833C31.2994 24.6201 31.4114 23.7801 31.4167 22.936C31.4114 22.092 31.2994 21.252 31.0833 20.436H33.9475C34.4597 22.0633 34.4597 23.8087 33.9475 25.436H33.9492Z" fill="white"/>
</g>
<path d="M47.791 25.8774L50.0352 18.9048H51.6582L48.5996 27.436H47.5039L47.791 25.8774ZM45.7168 18.9048L47.9434 25.8774L48.248 27.436H47.1465L44.0996 18.9048H45.7168ZM53.9844 21.0962V27.436H52.5664V21.0962H53.9844ZM52.4727 19.4321C52.4727 19.2173 52.543 19.0396 52.6836 18.8989C52.8281 18.7544 53.0273 18.6821 53.2812 18.6821C53.5312 18.6821 53.7285 18.7544 53.873 18.8989C54.0176 19.0396 54.0898 19.2173 54.0898 19.4321C54.0898 19.6431 54.0176 19.8188 53.873 19.9595C53.7285 20.1001 53.5312 20.1704 53.2812 20.1704C53.0273 20.1704 52.8281 20.1001 52.6836 19.9595C52.543 19.8188 52.4727 19.6431 52.4727 19.4321ZM59.0879 25.7192C59.0879 25.5786 59.0527 25.4517 58.9824 25.3384C58.9121 25.2212 58.7773 25.1157 58.5781 25.022C58.3828 24.9282 58.0938 24.8423 57.7109 24.7642C57.375 24.6899 57.0664 24.6021 56.7852 24.5005C56.5078 24.395 56.2695 24.2681 56.0703 24.1196C55.8711 23.9712 55.7168 23.7954 55.6074 23.5923C55.498 23.3892 55.4434 23.1548 55.4434 22.8892C55.4434 22.6313 55.5 22.3872 55.6133 22.1567C55.7266 21.9263 55.8887 21.7231 56.0996 21.5474C56.3105 21.3716 56.5664 21.2329 56.8672 21.1313C57.1719 21.0298 57.5117 20.979 57.8867 20.979C58.418 20.979 58.873 21.0688 59.252 21.2485C59.6348 21.4243 59.9277 21.6646 60.1309 21.9692C60.334 22.27 60.4355 22.6099 60.4355 22.9888H59.0234C59.0234 22.8208 58.9805 22.6646 58.8945 22.52C58.8125 22.3716 58.6875 22.2524 58.5195 22.1626C58.3516 22.0688 58.1406 22.022 57.8867 22.022C57.6445 22.022 57.4434 22.061 57.2832 22.1392C57.127 22.2134 57.0098 22.311 56.9316 22.4321C56.8574 22.5532 56.8203 22.686 56.8203 22.8306C56.8203 22.936 56.8398 23.0317 56.8789 23.1177C56.9219 23.1997 56.9922 23.2759 57.0898 23.3462C57.1875 23.4126 57.3203 23.4751 57.4883 23.5337C57.6602 23.5923 57.875 23.6489 58.1328 23.7036C58.6172 23.8052 59.0332 23.936 59.3809 24.0962C59.7324 24.2524 60.002 24.4556 60.1895 24.7056C60.377 24.9517 60.4707 25.2642 60.4707 25.6431C60.4707 25.9243 60.4102 26.1821 60.2891 26.4165C60.1719 26.647 60 26.8481 59.7734 27.02C59.5469 27.188 59.2754 27.3188 58.959 27.4126C58.6465 27.5063 58.2949 27.5532 57.9043 27.5532C57.3301 27.5532 56.8438 27.4517 56.4453 27.2485C56.0469 27.0415 55.7441 26.7778 55.5371 26.4575C55.334 26.1333 55.2324 25.7974 55.2324 25.4497H56.5977C56.6133 25.7114 56.6855 25.9204 56.8145 26.0767C56.9473 26.229 57.1113 26.3403 57.3066 26.4106C57.5059 26.4771 57.7109 26.5103 57.9219 26.5103C58.1758 26.5103 58.3887 26.4771 58.5605 26.4106C58.7324 26.3403 58.8633 26.2466 58.9531 26.1294C59.043 26.0083 59.0879 25.8716 59.0879 25.7192ZM63.2188 21.0962V27.436H61.8008V21.0962H63.2188ZM61.707 19.4321C61.707 19.2173 61.7773 19.0396 61.918 18.8989C62.0625 18.7544 62.2617 18.6821 62.5156 18.6821C62.7656 18.6821 62.9629 18.7544 63.1074 18.8989C63.252 19.0396 63.3242 19.2173 63.3242 19.4321C63.3242 19.6431 63.252 19.8188 63.1074 19.9595C62.9629 20.1001 62.7656 20.1704 62.5156 20.1704C62.2617 20.1704 62.0625 20.1001 61.918 19.9595C61.7773 19.8188 61.707 19.6431 61.707 19.4321ZM67.6719 21.0962V22.1274H64.0977V21.0962H67.6719ZM65.1289 19.5435H66.541V25.6841C66.541 25.8794 66.5684 26.0298 66.623 26.1353C66.6816 26.2368 66.7617 26.3052 66.8633 26.3403C66.9648 26.3755 67.084 26.3931 67.2207 26.3931C67.3184 26.3931 67.4121 26.3872 67.502 26.3755C67.5918 26.3638 67.6641 26.3521 67.7188 26.3403L67.7246 27.4185C67.6074 27.4536 67.4707 27.4849 67.3145 27.5122C67.1621 27.5396 66.9863 27.5532 66.7871 27.5532C66.4629 27.5532 66.1758 27.4966 65.9258 27.3833C65.6758 27.2661 65.4805 27.0767 65.3398 26.8149C65.1992 26.5532 65.1289 26.2056 65.1289 25.772V19.5435ZM74.0293 25.52L75.7285 18.9048H76.6191L76.5195 20.6099L74.7031 27.436H73.7773L74.0293 25.52ZM72.7578 18.9048L74.1348 25.4673L74.2578 27.436H73.2734L71.2988 18.9048H72.7578ZM78.5469 25.4497L79.9062 18.9048H81.3711L79.3965 27.436H78.4121L78.5469 25.4497ZM76.9648 18.9048L78.6465 25.5376L78.8926 27.436H77.9668L76.1797 20.6099L76.0859 18.9048H76.9648ZM84.9277 27.5532C84.459 27.5532 84.0352 27.4771 83.6562 27.3247C83.2812 27.1685 82.9609 26.9517 82.6953 26.6743C82.4336 26.397 82.2324 26.0708 82.0918 25.6958C81.9512 25.3208 81.8809 24.9165 81.8809 24.4829V24.2485C81.8809 23.7524 81.9531 23.3032 82.0977 22.9009C82.2422 22.4985 82.4434 22.1548 82.7012 21.8696C82.959 21.5806 83.2637 21.3599 83.6152 21.2075C83.9668 21.0552 84.3477 20.979 84.7578 20.979C85.2109 20.979 85.6074 21.0552 85.9473 21.2075C86.2871 21.3599 86.5684 21.5747 86.791 21.8521C87.0176 22.1255 87.1855 22.4517 87.2949 22.8306C87.4082 23.2095 87.4648 23.6274 87.4648 24.0845V24.688H82.5664V23.6743H86.0703V23.563C86.0625 23.3091 86.0117 23.0708 85.918 22.8481C85.8281 22.6255 85.6895 22.4458 85.502 22.3091C85.3145 22.1724 85.0645 22.104 84.752 22.104C84.5176 22.104 84.3086 22.1548 84.125 22.2563C83.9453 22.354 83.7949 22.4966 83.6738 22.6841C83.5527 22.8716 83.459 23.0981 83.3926 23.3638C83.3301 23.6255 83.2988 23.9204 83.2988 24.2485V24.4829C83.2988 24.7603 83.3359 25.0181 83.4102 25.2563C83.4883 25.4907 83.6016 25.6958 83.75 25.8716C83.8984 26.0474 84.0781 26.186 84.2891 26.2876C84.5 26.3853 84.7402 26.4341 85.0098 26.4341C85.3496 26.4341 85.6523 26.3657 85.918 26.229C86.1836 26.0923 86.4141 25.8989 86.6094 25.6489L87.3535 26.3696C87.2168 26.5688 87.0391 26.7603 86.8203 26.9438C86.6016 27.1235 86.334 27.27 86.0176 27.3833C85.7051 27.4966 85.3418 27.5532 84.9277 27.5532ZM88.5723 18.436H89.9844V26.0825L89.8496 27.436H88.5723V18.436ZM94.1211 24.2075V24.3306C94.1211 24.7993 94.0684 25.231 93.9629 25.6255C93.8613 26.0161 93.7051 26.356 93.4941 26.645C93.2871 26.9341 93.0293 27.1587 92.7207 27.3188C92.416 27.4751 92.0625 27.5532 91.6602 27.5532C91.2656 27.5532 90.9219 27.479 90.6289 27.3306C90.3359 27.1821 90.0898 26.9712 89.8906 26.6978C89.6953 26.4243 89.5371 26.0981 89.416 25.7192C89.2949 25.3403 89.209 24.9224 89.1582 24.4653V24.0728C89.209 23.6118 89.2949 23.1938 89.416 22.8188C89.5371 22.4399 89.6953 22.1138 89.8906 21.8403C90.0898 21.563 90.334 21.3501 90.623 21.2017C90.916 21.0532 91.2578 20.979 91.6484 20.979C92.0547 20.979 92.4121 21.0571 92.7207 21.2134C93.0332 21.3696 93.293 21.5923 93.5 21.8813C93.707 22.1665 93.8613 22.5063 93.9629 22.9009C94.0684 23.2954 94.1211 23.731 94.1211 24.2075ZM92.709 24.3306V24.2075C92.709 23.9224 92.6855 23.6548 92.6387 23.4048C92.5918 23.1509 92.5137 22.9282 92.4043 22.7368C92.2988 22.5454 92.1543 22.395 91.9707 22.2856C91.791 22.1724 91.5664 22.1157 91.2969 22.1157C91.0469 22.1157 90.832 22.1587 90.6523 22.2446C90.4727 22.3306 90.3223 22.4478 90.2012 22.5962C90.0801 22.7446 89.9844 22.9165 89.9141 23.1118C89.8477 23.3071 89.8027 23.5181 89.7793 23.7446V24.8052C89.8145 25.0981 89.8887 25.3677 90.002 25.6138C90.1191 25.856 90.2832 26.0513 90.4941 26.1997C90.7051 26.3442 90.9766 26.4165 91.3086 26.4165C91.5703 26.4165 91.791 26.3638 91.9707 26.2583C92.1504 26.1528 92.293 26.0063 92.3984 25.8188C92.5078 25.6274 92.5859 25.4048 92.6328 25.1509C92.6836 24.897 92.709 24.6235 92.709 24.3306ZM98.873 25.7192C98.873 25.5786 98.8379 25.4517 98.7676 25.3384C98.6973 25.2212 98.5625 25.1157 98.3633 25.022C98.168 24.9282 97.8789 24.8423 97.4961 24.7642C97.1602 24.6899 96.8516 24.6021 96.5703 24.5005C96.293 24.395 96.0547 24.2681 95.8555 24.1196C95.6562 23.9712 95.502 23.7954 95.3926 23.5923C95.2832 23.3892 95.2285 23.1548 95.2285 22.8892C95.2285 22.6313 95.2852 22.3872 95.3984 22.1567C95.5117 21.9263 95.6738 21.7231 95.8848 21.5474C96.0957 21.3716 96.3516 21.2329 96.6523 21.1313C96.957 21.0298 97.2969 20.979 97.6719 20.979C98.2031 20.979 98.6582 21.0688 99.0371 21.2485C99.4199 21.4243 99.7129 21.6646 99.916 21.9692C100.119 22.27 100.221 22.6099 100.221 22.9888H98.8086C98.8086 22.8208 98.7656 22.6646 98.6797 22.52C98.5977 22.3716 98.4727 22.2524 98.3047 22.1626C98.1367 22.0688 97.9258 22.022 97.6719 22.022C97.4297 22.022 97.2285 22.061 97.0684 22.1392C96.9121 22.2134 96.7949 22.311 96.7168 22.4321C96.6426 22.5532 96.6055 22.686 96.6055 22.8306C96.6055 22.936 96.625 23.0317 96.6641 23.1177C96.707 23.1997 96.7773 23.2759 96.875 23.3462C96.9727 23.4126 97.1055 23.4751 97.2734 23.5337C97.4453 23.5923 97.6602 23.6489 97.918 23.7036C98.4023 23.8052 98.8184 23.936 99.166 24.0962C99.5176 24.2524 99.7871 24.4556 99.9746 24.7056C100.162 24.9517 100.256 25.2642 100.256 25.6431C100.256 25.9243 100.195 26.1821 100.074 26.4165C99.957 26.647 99.7852 26.8481 99.5586 27.02C99.332 27.188 99.0605 27.3188 98.7441 27.4126C98.4316 27.5063 98.0801 27.5532 97.6895 27.5532C97.1152 27.5532 96.6289 27.4517 96.2305 27.2485C95.832 27.0415 95.5293 26.7778 95.3223 26.4575C95.1191 26.1333 95.0176 25.7974 95.0176 25.4497H96.3828C96.3984 25.7114 96.4707 25.9204 96.5996 26.0767C96.7324 26.229 96.8965 26.3403 97.0918 26.4106C97.291 26.4771 97.4961 26.5103 97.707 26.5103C97.9609 26.5103 98.1738 26.4771 98.3457 26.4106C98.5176 26.3403 98.6484 26.2466 98.7383 26.1294C98.8281 26.0083 98.873 25.8716 98.873 25.7192ZM103.004 21.0962V27.436H101.586V21.0962H103.004ZM101.492 19.4321C101.492 19.2173 101.562 19.0396 101.703 18.8989C101.848 18.7544 102.047 18.6821 102.301 18.6821C102.551 18.6821 102.748 18.7544 102.893 18.8989C103.037 19.0396 103.109 19.2173 103.109 19.4321C103.109 19.6431 103.037 19.8188 102.893 19.9595C102.748 20.1001 102.551 20.1704 102.301 20.1704C102.047 20.1704 101.848 20.1001 101.703 19.9595C101.562 19.8188 101.492 19.6431 101.492 19.4321ZM107.457 21.0962V22.1274H103.883V21.0962H107.457ZM104.914 19.5435H106.326V25.6841C106.326 25.8794 106.354 26.0298 106.408 26.1353C106.467 26.2368 106.547 26.3052 106.648 26.3403C106.75 26.3755 106.869 26.3931 107.006 26.3931C107.104 26.3931 107.197 26.3872 107.287 26.3755C107.377 26.3638 107.449 26.3521 107.504 26.3403L107.51 27.4185C107.393 27.4536 107.256 27.4849 107.1 27.5122C106.947 27.5396 106.771 27.5532 106.572 27.5532C106.248 27.5532 105.961 27.4966 105.711 27.3833C105.461 27.2661 105.266 27.0767 105.125 26.8149C104.984 26.5532 104.914 26.2056 104.914 25.772V19.5435ZM111.342 27.5532C110.873 27.5532 110.449 27.4771 110.07 27.3247C109.695 27.1685 109.375 26.9517 109.109 26.6743C108.848 26.397 108.646 26.0708 108.506 25.6958C108.365 25.3208 108.295 24.9165 108.295 24.4829V24.2485C108.295 23.7524 108.367 23.3032 108.512 22.9009C108.656 22.4985 108.857 22.1548 109.115 21.8696C109.373 21.5806 109.678 21.3599 110.029 21.2075C110.381 21.0552 110.762 20.979 111.172 20.979C111.625 20.979 112.021 21.0552 112.361 21.2075C112.701 21.3599 112.982 21.5747 113.205 21.8521C113.432 22.1255 113.6 22.4517 113.709 22.8306C113.822 23.2095 113.879 23.6274 113.879 24.0845V24.688H108.98V23.6743H112.484V23.563C112.477 23.3091 112.426 23.0708 112.332 22.8481C112.242 22.6255 112.104 22.4458 111.916 22.3091C111.729 22.1724 111.479 22.104 111.166 22.104C110.932 22.104 110.723 22.1548 110.539 22.2563C110.359 22.354 110.209 22.4966 110.088 22.6841C109.967 22.8716 109.873 23.0981 109.807 23.3638C109.744 23.6255 109.713 23.9204 109.713 24.2485V24.4829C109.713 24.7603 109.75 25.0181 109.824 25.2563C109.902 25.4907 110.016 25.6958 110.164 25.8716C110.312 26.0474 110.492 26.186 110.703 26.2876C110.914 26.3853 111.154 26.4341 111.424 26.4341C111.764 26.4341 112.066 26.3657 112.332 26.229C112.598 26.0923 112.828 25.8989 113.023 25.6489L113.768 26.3696C113.631 26.5688 113.453 26.7603 113.234 26.9438C113.016 27.1235 112.748 27.27 112.432 27.3833C112.119 27.4966 111.756 27.5532 111.342 27.5532Z" fill="white"/>
<defs>
<clipPath id="clip0_12612_191957">
<rect width="20" height="20" fill="white" transform="translate(16 12.936)"/>
</clipPath>
</defs>
</svg>
